<svg width="24" height="24" viewBox="0 0 24 24" fill="none" xmlns="http://www.w3.org/2000/svg">
<circle cx="12" cy="12" r="7.5" fill="black" stroke="black"/>
<path d="M4.5 11L2.5 12L4.5 13V11Z" fill="black"/>
<path d="M21.5 12L19.5 11V13L21.5 12Z" fill="black"/>
<path d="M13 4.5H11L12 2.5L13 4.5Z" fill="black"/>
<path d="M13 19.5H11L12 21.5L13 19.5Z" fill="black"/>
<path d="M4.5 11L2.5 12L4.5 13V11Z" stroke="black"/>
<path d="M21.5 12L19.5 11V13L21.5 12Z" stroke="black"/>
<path d="M13 4.5H11L12 2.5L13 4.5Z" stroke="black"/>
<path d="M13 19.5H11L12 21.5L13 19.5Z" stroke="black"/>
<path d="M6 16.5L5 19L7.5 18L6 16.5Z" fill="black"/>
<path d="M7.5 6L6 7.5L5 5L7.5 6Z" fill="black"/>
<path d="M18 7.5L16.5 6L19 5L18 7.5Z" fill="black"/>
<path d="M16.5 18L18 16.5L19 19L16.5 18Z" fill="black"/>
<path d="M6 16.5L5 19L7.5 18L6 16.5Z" stroke="black"/>
<path d="M7.5 6L6 7.5L5 5L7.5 6Z" stroke="black"/>
<path d="M18 7.5L16.5 6L19 5L18 7.5Z" stroke="black"/>
<path d="M16.5 18L18 16.5L19 19L16.5 18Z" stroke="black"/>
<path d="M10 8C10 8.55228 9.55228 9 9 9C8.44772 9 8 8.55228 8 8C8 7.44772 8.44772 7 9 7C9.55228 7 10 7.44772 10 8Z" fill="white"/>
</svg>
