<svg width="24" height="24" viewBox="0 0 24 24" fill="none" xmlns="http://www.w3.org/2000/svg">
<path d="M23 12C23 18.0751 18.0751 23 12 23C5.92487 23 1 18.0751 1 12C1 5.92487 5.92487 1 12 1C18.0751 1 23 5.92487 23 12Z" fill="black"/>
<path d="M5.46649 9.61191C5.46648 9.61191 5.46648 9.61191 5.46648 9.61192C5.23301 9.75938 5.16329 10.0682 5.31074 10.3016C5.4582 10.5351 5.76701 10.6049 6.00048 10.4574L5.73349 10.0347L6.00054 10.4574L6.00065 10.4573L6.00101 10.4571L6.00229 10.4563L6.00708 10.4532L6.02541 10.4416L6.09567 10.3968C6.1569 10.3576 6.24625 10.3001 6.35943 10.2266C6.58575 10.0795 6.90758 9.86798 7.29071 9.60953C7.66247 9.35874 8.09278 9.06319 8.55012 8.73896L8.51994 8.80807L8.55636 8.78018C8.28752 9.43184 8.01476 10.1058 7.74046 10.7836C7.45875 11.4796 7.17542 12.1797 6.89305 12.8637C5.17759 14.3536 3.65271 15.8047 2.67605 17.0294C2.18269 17.6481 1.79981 18.2448 1.61827 18.7848C1.43474 19.3307 1.42679 19.9351 1.87993 20.3882C2.11713 20.6254 2.40071 20.7863 2.72767 20.8212C3.05108 20.8558 3.3527 20.7603 3.61666 20.6057C4.12363 20.3087 4.59621 19.7326 5.03616 19.0499C5.91489 17.6864 6.83182 15.6228 7.72662 13.4647C9.92714 11.5645 12.4621 9.57532 14.6403 7.86598C14.6557 7.85391 14.6711 7.84186 14.6864 7.82983L14.6865 7.82993L14.7105 7.81106C14.9996 8.23959 15.371 8.71311 15.7818 9.23673C15.8679 9.34655 15.9558 9.45858 16.045 9.57287C13.1755 11.5728 11.1067 13.2639 9.67978 14.6752C8.19458 16.1441 7.35801 17.3547 7.07876 18.3337C6.93614 18.8337 6.93011 19.3052 7.09322 19.7212C7.25795 20.1413 7.57157 20.4446 7.95407 20.6469C8.69181 21.0373 9.74124 21.0861 10.8282 20.9285C13.0223 20.6103 15.7588 19.3914 17.4464 17.5116C18.297 16.5642 18.9006 15.4259 19.0024 14.1335C19.1046 12.8353 18.6954 11.4454 17.6362 10.0112C17.5833 9.93965 17.5308 9.86916 17.4788 9.79972C18.1164 9.36588 18.7914 8.91743 19.5056 8.4541C19.7373 8.30381 19.8032 7.99417 19.6529 7.76251C19.5026 7.53085 19.193 7.46489 18.9613 7.61518C18.2247 8.09305 17.5287 8.55569 16.8716 9.00338L16.8709 9.00245L16.8694 9.00344C16.7476 8.8469 16.6308 8.69791 16.5193 8.55567C16.0992 8.0198 15.7542 7.5797 15.4986 7.19204C17.2922 5.78198 18.776 4.59776 19.4337 3.91987C19.5989 3.7496 19.7684 3.55618 19.8511 3.36981C19.8872 3.28869 19.9713 3.06837 19.8549 2.83288C19.7252 2.57069 19.469 2.51937 19.359 2.50905C19.2348 2.4974 19.1083 2.5158 19.0017 2.53817C18.8877 2.56208 18.7593 2.59883 18.6188 2.64548C18.3376 2.73883 17.977 2.88234 17.5331 3.07656C16.7429 3.42227 16.1026 3.74021 15.5999 4.04735C15.1006 4.35243 14.7104 4.66264 14.4453 5.0026C14.1705 5.35491 14.0319 5.73789 14.0426 6.15578C14.0494 6.41932 14.1152 6.67628 14.2173 6.9268C14.1518 6.9782 14.0859 7.0299 14.0197 7.08186C12.3129 8.42117 10.3731 9.94339 8.54431 11.463C8.58817 11.3547 8.63197 11.2465 8.67568 11.1384C9.18291 9.88502 9.67942 8.6581 10.1596 7.55233C11.244 6.71664 12.3152 5.80345 12.9667 5.01113C13.2921 4.61545 13.5751 4.17761 13.6389 3.74926C13.6735 3.51744 13.6469 3.26566 13.5058 3.03625C13.3675 2.81129 13.1536 2.66418 12.9192 2.57041C12.4889 2.39831 12.0873 2.56443 11.792 2.79024C11.4989 3.0143 11.2221 3.35746 10.9602 3.75368C10.4477 4.52915 9.90369 5.64701 9.34659 6.91539C8.4136 7.62518 7.46094 8.28843 6.73147 8.78052C6.3538 9.03529 6.03682 9.2436 5.81455 9.38804C5.70343 9.46025 5.61602 9.51646 5.55658 9.55451L5.48895 9.59766L5.47187 9.6085L5.46769 9.61115L5.46672 9.61176L5.46651 9.61189L5.46649 9.61191Z" fill="black" stroke="black" stroke-linecap="round"/>
<path d="M12.7335 3.03465C14.0673 3.56818 11.9853 5.52494 9.75273 7.23441C8.97324 9.01942 8.14416 11.1476 7.30999 13.164C9.71552 11.0808 12.5313 8.88651 14.8415 7.0725C14.1023 5.72404 14.6115 4.90048 17.7335 3.53464C21.2372 2.00178 18.7708 3.98706 14.8415 7.0725C15.2181 7.75955 15.9188 8.58287 16.7632 9.6836C16.9158 9.8825 17.0731 10.0904 17.234 10.3083C25.2508 21.1626 -7.89945 26.6632 16.7632 9.6836C15.9188 8.58287 15.2181 7.75955 14.8415 7.0725C12.5313 8.88651 9.71552 11.0808 7.30999 13.164C5.48738 17.5696 3.64047 21.4416 2.23348 20.0346C1.18388 18.985 3.81356 16.1919 7.30999 13.164C8.14416 11.1476 8.97324 9.01942 9.75273 7.23441C10.9015 4.60367 11.9426 2.7183 12.7335 3.03465Z" fill="black"/>
<path d="M5.73349 10.0347C5.73349 10.0347 15.2335 4.03467 12.7335 3.03465C10.2335 2.03464 5.23348 23.0346 2.23348 20.0346C-0.766518 17.0346 26.2911 -0.209318 17.7335 3.53464C12.7335 5.72213 14.435 6.51863 17.234 10.3083C25.5 21.5 -10 27 19.2335 8.03464" stroke="white" stroke-linecap="round"/>
</svg>
